<svg width="18" height="16" viewBox="0 0 18 16" fill="none" xmlns="http://www.w3.org/2000/svg">
<path d="M8.99999 15.5L7.79166 14.4167C6.38888 13.1528 5.22916 12.0625 4.31249 11.1459C3.39582 10.2292 2.66666 9.40629 2.12499 8.67712C1.58332 7.94796 1.20485 7.27782 0.989573 6.66671C0.774295 6.0556 0.666656 5.4306 0.666656 4.79171C0.666656 3.48615 1.10416 2.39587 1.97916 1.52087C2.85416 0.645874 3.94443 0.208374 5.24999 0.208374C5.97221 0.208374 6.65971 0.361152 7.31249 0.666707C7.96527 0.972263 8.52777 1.40282 8.99999 1.95837C9.47221 1.40282 10.0347 0.972263 10.6875 0.666707C11.3403 0.361152 12.0278 0.208374 12.75 0.208374C14.0555 0.208374 15.1458 0.645874 16.0208 1.52087C16.8958 2.39587 17.3333 3.48615 17.3333 4.79171C17.3333 5.4306 17.2257 6.0556 17.0104 6.66671C16.7951 7.27782 16.4167 7.94796 15.875 8.67712C15.3333 9.40629 14.6042 10.2292 13.6875 11.1459C12.7708 12.0625 11.6111 13.1528 10.2083 14.4167L8.99999 15.5Z" fill="#F34040"/>
</svg>
