<svg width="18" height="16" viewBox="0 0 18 16" fill="none" xmlns="http://www.w3.org/2000/svg">
<path d="M9.00002 15.5L7.79169 14.4167C6.38891 13.1528 5.22919 12.0625 4.31252 11.1459C3.39585 10.2292 2.66669 9.40629 2.12502 8.67712C1.58335 7.94796 1.20488 7.27782 0.989604 6.66671C0.774326 6.0556 0.666687 5.4306 0.666687 4.79171C0.666687 3.48615 1.10419 2.39587 1.97919 1.52087C2.85419 0.645874 3.94446 0.208374 5.25002 0.208374C5.97224 0.208374 6.65974 0.361152 7.31252 0.666707C7.9653 0.972263 8.5278 1.40282 9.00002 1.95837C9.47224 1.40282 10.0347 0.972263 10.6875 0.666707C11.3403 0.361152 12.0278 0.208374 12.75 0.208374C14.0556 0.208374 15.1459 0.645874 16.0209 1.52087C16.8959 2.39587 17.3334 3.48615 17.3334 4.79171C17.3334 5.4306 17.2257 6.0556 17.0104 6.66671C16.7952 7.27782 16.4167 7.94796 15.875 8.67712C15.3334 9.40629 14.6042 10.2292 13.6875 11.1459C12.7709 12.0625 11.6111 13.1528 10.2084 14.4167L9.00002 15.5ZM9.00002 13.25C10.3334 12.0556 11.4306 11.0313 12.2917 10.1771C13.1528 9.32296 13.8334 8.5799 14.3334 7.94796C14.8334 7.31601 15.1806 6.75351 15.375 6.26046C15.5695 5.7674 15.6667 5.27782 15.6667 4.79171C15.6667 3.95837 15.3889 3.26393 14.8334 2.70837C14.2778 2.15282 13.5834 1.87504 12.75 1.87504C12.0972 1.87504 11.4931 2.05907 10.9375 2.42712C10.382 2.79518 10 3.26393 9.79169 3.83337H8.20835C8.00002 3.26393 7.61808 2.79518 7.06252 2.42712C6.50697 2.05907 5.9028 1.87504 5.25002 1.87504C4.41669 1.87504 3.72224 2.15282 3.16669 2.70837C2.61113 3.26393 2.33335 3.95837 2.33335 4.79171C2.33335 5.27782 2.43058 5.7674 2.62502 6.26046C2.81946 6.75351 3.16669 7.31601 3.66669 7.94796C4.16669 8.5799 4.84724 9.32296 5.70835 10.1771C6.56947 11.0313 7.66669 12.0556 9.00002 13.25Z" fill="#343434"/>
</svg>
